<svg xmlns="http://www.w3.org/2000/svg" width="1240" height="1240"><path d="M704.076 144.75c-.684 1.512-3.231 5.773-5.66 9.468-2.429 3.694-4.416 7.15-4.416 7.678 0 .529-.577 1.556-1.282 2.283-1.004 1.035-17.82 27.858-24.025 38.321-.652 1.1-2.792 4.475-4.754 7.5-1.963 3.025-3.882 6.175-4.265 7-.383.825-1.479 2.709-2.435 4.188-.956 1.478-4.862 7.778-8.678 14-3.817 6.221-7.979 12.704-9.25 14.406S637 253.02 637 253.425c0 .405-1.575 3.175-3.5 6.156-7.256 11.235-10.237 16.023-12.09 19.419-1.051 1.925-2.18 3.725-2.511 4-.331.275-1.681 2.398-3 4.717-3.014 5.3-13.825 22.669-19.554 31.417-2.39 3.649-4.345 6.942-4.345 7.317s-1.069 2.115-2.375 3.866c-1.307 1.751-3.444 5.066-4.75 7.369-3.809 6.712-16.057 26.541-18.416 29.814-1.19 1.65-2.472 3.675-2.85 4.5-.727 1.585-1.922 3.599-5.045 8.5l-5.096 8c-1.752 2.75-4.261 6.861-5.576 9.135-1.316 2.274-4.867 8.053-7.892 12.842-3.025 4.789-5.95 9.46-6.5 10.38-.55.921-4.038 6.496-7.75 12.391-3.712 5.895-6.75 10.98-6.75 11.302 0 .321-1.069 2.016-2.375 3.767-1.307 1.751-3.444 5.066-4.75 7.369-3.258 5.741-15.788 26.137-18.317 29.814-1.135 1.65-2.592 3.9-3.239 5-.647 1.1-4.583 7.528-8.748 14.285-4.164 6.756-7.571 12.541-7.571 12.856 0 .314-1.238 2.211-2.75 4.215s-3.616 5.219-4.675 7.144c-1.058 1.925-3.811 6.425-6.117 10-6.508 10.091-11.012 17.356-11.78 19-.385.825-1.483 2.713-2.439 4.195-3.5 5.424-18.769 29.92-19.778 31.728-.572 1.025-1.529 2.474-2.128 3.22-.598.747-1.398 2.367-1.776 3.602l-.689 2.245 101.316.255 101.316.255-.142 4c-.155 4.375-1.24 9.292-4.414 20-1.141 3.85-2.292 8.125-2.557 9.5-.266 1.375-1.109 4.75-1.874 7.5-.765 2.75-1.857 6.8-2.426 9-2.601 10.062-4.312 16.235-5.266 19-.57 1.65-1.408 4.8-1.863 7-1.37 6.62-3.108 12.809-4.573 16.284-.762 1.806-1.385 4.529-1.385 6.05s-.465 3.231-1.034 3.8-1.441 3.246-1.938 5.95c-1.597 8.68-3.215 14.89-4.133 15.866-.492.523-.893 2.098-.89 3.5.004 2.32-1.415 7.547-4.222 15.55-.579 1.65-1.268 4.8-1.53 7-.263 2.2-.837 4.45-1.276 5-.439.55-1.096 2.8-1.459 5-.364 2.2-1.019 4.9-1.456 6-.888 2.235-2.938 10.161-4.009 15.5-.387 1.925-1.232 4.483-1.878 5.684-.646 1.202-1.175 3.464-1.175 5.028 0 1.564-.619 3.731-1.375 4.815-.757 1.085-1.615 3.773-1.908 5.973-.293 2.2-1.959 8.95-3.703 15-1.744 6.05-3.51 12.575-3.924 14.5-.415 1.925-1.25 5.075-1.857 7-.607 1.925-1.834 6.425-2.727 10-.893 3.575-2.095 7.85-2.672 9.5-.577 1.65-1.422 4.8-1.878 7-1.553 7.493-3.689 15.132-4.824 17.253-.622 1.163-1.132 3.126-1.132 4.36 0 2.136-.478 4.036-3.177 12.637-.647 2.063-1.499 5.55-1.893 7.75-.393 2.2-1.214 5.462-1.823 7.25l-2.214 6.5c-1.903 5.584-2.671 11.769-1.549 12.463.571.352 1.206.137 1.411-.479.206-.616 2.876-4.858 5.935-9.427 3.059-4.569 5.81-8.982 6.112-9.807.303-.825 1.596-2.892 2.874-4.594 1.278-1.702 2.324-3.358 2.324-3.68 0-.321 1.73-3.204 3.844-6.405 2.115-3.202 4.477-6.981 5.25-8.399.773-1.418 2.756-4.639 4.406-7.158s3.9-6.084 5-7.922c4.153-6.939 5.737-9.482 12.049-19.342 1.761-2.75 4.065-6.575 5.12-8.5 2.166-3.952 8.177-13.506 12.269-19.5 1.501-2.2 3.035-4.675 3.407-5.5.372-.825 1.559-2.85 2.638-4.5 1.078-1.65 2.938-4.8 4.133-7 1.195-2.2 3.166-5.35 4.38-7 1.215-1.65 2.505-3.675 2.867-4.5.363-.825 1.442-2.699 2.398-4.164 4.871-7.46 14.239-22.749 14.239-23.237 0-.307 1.798-2.93 3.996-5.829 2.197-2.898 3.997-5.765 4-6.37.002-.605 1.354-2.964 3.004-5.241 1.65-2.278 3-4.339 3-4.58 0-.24 1.8-3.148 4-6.46s4-6.462 4-6.999c0-.537.579-1.572 1.287-2.299.709-.726 2.363-3.121 3.676-5.321 1.313-2.2 3.951-6.475 5.862-9.5 14.216-22.508 13.747-21.748 16.231-26.34 1.142-2.111 3.598-5.957 5.457-8.545 1.86-2.589 3.869-5.811 4.464-7.161.596-1.35 3.329-5.829 6.075-9.954 2.745-4.125 5.902-9.413 7.016-11.75 1.114-2.337 2.365-4.25 2.78-4.25.414 0 1.741-1.913 2.948-4.25 2.508-4.858 3.782-6.954 6.951-11.433 1.239-1.751 2.253-3.397 2.253-3.657 0-.261 2.024-3.553 4.498-7.317 2.474-3.764 4.499-7.405 4.5-8.093.001-.687.362-1.25.803-1.25.713 0 6.049-8.77 11.691-19.217 1.817-3.364 16.487-27.148 20.746-33.635.956-1.457 2.081-3.323 2.5-4.148 1.72-3.386 6.714-11.535 7.355-12 .378-.275 1.668-2.3 2.866-4.5 1.198-2.2 2.934-5.188 3.859-6.639 3.386-5.313 14.654-23.564 19.053-30.861 2.487-4.125 4.804-7.725 5.148-8 .345-.275.937-1.175 1.315-2 .378-.825 1.578-2.85 2.666-4.5 1.088-1.65 2.28-3.624 2.648-4.386.369-.762 2.362-3.902 4.429-6.978 2.068-3.075 3.545-5.939 3.282-6.364-.262-.425-45.845-.772-101.296-.772-86.936 0-100.984-.2-102.024-1.453-1.275-1.537-.992-2.832 7.516-34.297.855-3.163 1.905-7.36 2.334-9.327.428-1.967 1.087-4.075 1.463-4.683.376-.609 1.102-3.049 1.613-5.423.512-2.374 1.655-7.017 2.541-10.317l2.953-11c.739-2.75 2.75-10.175 4.471-16.5 1.72-6.325 4.704-17.539 6.631-24.919 1.927-7.38 4.584-17.28 5.904-22 2.333-8.338 3.294-11.914 9.702-36.081l4.441-16.75c.766-2.887 2.092-7.837 2.947-11 .855-3.163 1.904-7.325 2.332-9.25a109.603 109.603 0 0 1 1.853-7c3.587-11.669 8.104-28.457 9.367-34.817.472-2.374 1.101-4.71 1.398-5.192.298-.481 1.855-5.963 3.462-12.183a2948.045 2948.045 0 0 1 4.523-17.308c4.827-18.076 6.845-25.5 8.153-30 1.56-5.369 2.911-14.5 2.145-14.5-.257 0-1.027 1.238-1.712 2.75M411.441 722.468c-1.067.808-3.291 1.497-4.941 1.532-1.65.035-3.874.724-4.941 1.532-1.068.807-3.15 1.468-4.628 1.468-1.477 0-3.246.675-3.931 1.5s-2.427 1.514-3.872 1.532c-1.446.017-3.502.692-4.569 1.5-1.068.807-2.868 1.482-4 1.5-1.133.017-2.933.692-4 1.5-1.068.807-2.986 1.468-4.264 1.468-2.185 0-4.841 1.136-8.295 3.547-.825.576-4.2 2.072-7.5 3.325-9.718 3.689-33.023 15.64-41.012 21.031-2.523 1.703-4.981 3.097-5.461 3.097-.481 0-2.146 1.062-3.7 2.359-1.555 1.298-4.177 3.119-5.827 4.048-3.097 1.743-8.935 5.862-19.125 13.493-7.542 5.648-28.605 26.802-34.518 34.666-8.333 11.084-15.351 23.548-19.39 34.434-.918 2.475-2.298 5.978-3.068 7.784-.769 1.806-1.399 4.538-1.399 6.072 0 1.533-.724 4.911-1.608 7.507-1.292 3.792-1.515 7.609-1.136 19.428.259 8.09.946 16.059 1.527 17.709.581 1.65 1.563 5.025 2.182 7.5.62 2.475 1.486 5.85 1.926 7.5 1.182 4.439 8.976 20.516 11.724 24.183 1.312 1.751 2.385 3.463 2.385 3.804 0 2.173 12.859 17.144 25.1 29.221 12.211 12.048 20.086 18.567 28.743 23.792.911.55 2.026 1.579 2.477 2.286.451.707 2.588 1.994 4.75 2.859 2.161.865 3.93 1.929 3.93 2.366 0 .436 1.238 1.291 2.75 1.899 1.512.608 4.775 2.445 7.25 4.082 2.475 1.636 5.063 3.208 5.75 3.492.688.284 1.813.746 2.5 1.027.688.281 2.6 1.401 4.25 2.489 1.65 1.088 3.675 2.247 4.5 2.577.825.329 5.117 2.359 9.539 4.511 4.421 2.151 8.528 3.912 9.127 3.912.599 0 1.6.615 2.224 1.367.623.752 3.716 2.174 6.872 3.161 3.156.987 6.413 2.105 7.238 2.486 3.505 1.617 8.803 3.852 13 5.486 2.475.963 5.85 2.33 7.5 3.036 1.65.707 5.7 2.092 9 3.08 3.3.987 6.427 2.152 6.95 2.589.522.437 1.872.798 3 .801 1.127.004 3.339.679 4.914 1.5 1.576.822 3.852 1.494 5.059 1.494 1.207 0 3.068.661 4.136 1.468 1.067.808 3.291 1.499 4.941 1.536 1.65.037 4.125.71 5.5 1.496s3.936 1.445 5.691 1.465c1.755.019 3.453.459 3.773.977.321.518 2.71 1.252 5.309 1.63 2.6.378 5.942 1.304 7.427 2.058 1.486.753 4.103 1.37 5.816 1.37 1.714 0 3.917.429 4.897.954 2.14 1.145 11.803 2.921 22.087 4.059 4.125.457 10.875 1.474 15 2.261 13.627 2.599 43.231 6.063 67.5 7.898 21.555 1.63 95.025 1.605 107.5-.036 5.225-.687 12.34-1.252 15.812-1.255 3.471-.003 8.871-.453 12-.999 3.128-.547 9.513-1.377 14.188-1.845 16.785-1.681 27.032-3.245 43.5-6.639 4.4-.906 10.142-1.804 12.761-1.994 2.618-.19 5.626-.808 6.684-1.375 1.058-.566 3.416-1.045 5.239-1.064 1.824-.02 4.441-.679 5.816-1.465s3.782-1.445 5.349-1.465c1.567-.019 4.267-.643 6-1.387 3.818-1.638 10.898-3.615 15.647-4.369 1.923-.305 4.507-1.218 5.742-2.027 1.236-.81 2.881-1.228 3.657-.931.776.298 2.242-.088 3.258-.858s2.903-1.414 4.193-1.431c1.29-.018 3.54-.645 5-1.393 3.206-1.645 8.455-3.518 13.026-4.649 1.855-.459 3.858-1.32 4.45-1.912.593-.593 2.05-1.078 3.238-1.078 1.187 0 4.81-1.297 8.05-2.883 3.239-1.585 7.915-3.664 10.39-4.62 7.848-3.029 9.464-3.707 11-4.619.825-.49 2.175-1.17 3-1.511.825-.341 4.314-1.914 7.753-3.494 3.439-1.58 6.485-2.873 6.77-2.873.284 0 2.195-1.057 4.247-2.349 2.051-1.292 7.02-4.104 11.041-6.25 9.273-4.948 10.149-5.448 14.827-8.462 4.803-3.095 6.525-4.15 13.112-8.034 2.887-1.703 5.25-3.514 5.25-4.025 0-.511 1.042-1.326 2.316-1.81 4.372-1.662 24.368-20.479 34.079-32.07 12.166-14.52 23.305-33.317 26.075-44 .356-1.375 1.746-6.675 3.089-11.778 2.049-7.789 2.441-11.604 2.441-23.782 0-9.922-.427-15.526-1.351-17.739-.744-1.779-1.67-5.354-2.058-7.944-.389-2.591-1.131-4.972-1.649-5.293-.518-.32-.942-1.454-.942-2.52s-1.35-4.796-3-8.288-3-6.869-3-7.503c0-.634-.366-1.153-.813-1.153-.447 0-1.75-2.138-2.896-4.75-1.147-2.612-3.481-6.499-5.188-8.638-1.707-2.138-3.104-4.163-3.104-4.5-.001-.621-1.414-2.348-9.812-11.997-6.341-7.285-8.638-9.586-16.743-16.77-12.815-11.359-13.942-12.313-14.558-12.329-.338-.009-2.138-1.359-4-3-1.863-1.641-3.771-2.991-4.242-3-.471-.009-2.561-1.366-4.644-3.016s-4.23-3-4.771-3c-.541 0-1.572-.708-2.29-1.573s-2.91-2.454-4.872-3.531c-1.962-1.076-5.817-3.287-8.567-4.913-2.75-1.625-8.375-4.649-12.5-6.719-4.125-2.07-7.65-4.101-7.833-4.514-.184-.413-1.135-.75-2.115-.75-.98 0-2.956-.923-4.39-2.052-1.435-1.128-4.645-2.745-7.134-3.593-2.489-.848-4.778-1.95-5.086-2.449-.308-.498-1.603-.906-2.879-.906-1.275 0-2.878-.675-3.563-1.5s-2.26-1.5-3.5-1.5c-1.24 0-2.769-.619-3.397-1.375-.627-.757-3.27-1.931-5.872-2.609-2.602-.678-6.149-1.859-7.882-2.625-1.733-.765-4.041-1.391-5.128-1.391-1.087 0-2.536-.675-3.221-1.5s-2.3-1.5-3.589-1.5c-1.289 0-3.821-.632-5.627-1.404-5.761-2.463-11.257-3.781-14.314-3.434-2.668.304-3.046.796-3.718 4.838-.412 2.475-1.165 11.552-1.675 20.172-.8 13.52-.692 16.649.783 22.789 1.397 5.817 2.251 7.474 4.675 9.071 1.631 1.075 3.951 1.958 5.156 1.961 1.205.004 2.469.457 2.809 1.007.34.55 1.69 1 3 1s2.66.45 3 1c.34.55 1.396 1 2.348 1 .951 0 3.494.9 5.652 2s4.509 2 5.225 2c.716 0 2.084.387 3.039.859.955.473 4.211 2.005 7.236 3.404 15.152 7.01 25.763 12.541 29.432 15.341 2.238 1.707 6.732 4.807 9.989 6.89 3.257 2.082 9.803 7.72 14.546 12.527 12.922 13.096 17.302 22.818 17.204 38.187-.031 4.79-.532 9.598-1.114 10.685-.581 1.086-1.057 2.81-1.057 3.83 0 4.605-8.438 16.792-18.264 26.376-3.327 3.246-6.413 5.901-6.858 5.901-.444 0-2.287 1.297-4.093 2.882-3.496 3.068-7.65 5.728-14.535 9.307-2.338 1.215-4.25 2.57-4.25 3.01 0 .441-.845.801-1.878.801-1.032 0-2.437.675-3.122 1.5s-2.26 1.5-3.5 1.5c-1.24 0-2.815.675-3.5 1.5s-1.684 1.5-2.221 1.5c-.537 0-2.62.721-4.628 1.602-4.015 1.762-3.989 1.752-16.151 6.339-4.675 1.763-9.85 3.817-11.5 4.564-1.65.747-4.125 1.642-5.5 1.989-1.375.348-3.4.986-4.5 1.419-5.06 1.993-9.269 3.244-12.34 3.667-1.836.254-4.626 1.127-6.2 1.941-1.573.813-4.038 1.479-5.476 1.479-1.439 0-3.598.528-4.8 1.174-1.201.646-3.534 1.256-5.184 1.355-3.027.182-8.744 1.465-18.088 4.059-2.798.776-6.626 1.412-8.506 1.412-1.881 0-4.991.486-6.913 1.079-1.921.593-6.868 1.485-10.993 1.982-12.925 1.556-16.287 2.046-24 3.501-4.125.777-11.1 1.604-15.5 1.836-4.4.233-11.15.953-15 1.6-3.85.647-11.95 1.324-18 1.505-6.05.181-17.525.81-25.5 1.398-17.963 1.325-45.16 1.344-63 .046-7.425-.54-20.566-1.385-29.202-1.876-8.636-.491-16.211-1.208-16.834-1.593-.623-.385-5.257-.811-10.298-.946-5.041-.136-11.641-.746-14.666-1.356-3.025-.61-7.975-1.326-11-1.591-3.025-.265-7.072-.955-8.993-1.533-1.922-.579-5.297-1.059-7.5-1.067-2.204-.008-5.807-.664-8.007-1.456-2.2-.793-5.856-1.461-8.124-1.485-2.269-.024-6.038-.719-8.376-1.544-2.338-.825-5.715-1.5-7.504-1.5-1.788 0-4.867-.675-6.842-1.5-1.974-.825-4.864-1.5-6.422-1.5-1.558 0-3.288-.456-3.844-1.012-.557-.557-2.93-1.175-5.274-1.374-2.343-.198-4.768-.868-5.388-1.488-.619-.619-2.258-1.126-3.643-1.126-1.384 0-4.331-.628-6.55-1.395-2.218-.767-6.733-2.21-10.033-3.208-3.3-.997-6.688-2.374-7.529-3.06-.841-.686-4.047-1.903-7.123-2.704-3.077-.802-6.439-1.871-7.471-2.376a803.432 803.432 0 0 1-5.208-2.588c-1.832-.918-3.912-1.669-4.623-1.669-1.317 0-8.829-3.274-11.546-5.032-.825-.534-3.525-1.873-6-2.976-7.797-3.476-21.191-11.677-25.903-15.859-1.322-1.173-2.714-2.133-3.094-2.133-.814 0-13.003-11.762-13.003-12.548 0-.296-1.763-2.881-3.918-5.745-6.223-8.27-10.556-21.482-9.786-29.838 1.247-13.543 6.453-24.273 16.916-34.869 7.604-7.7 24.789-20.762 32.788-24.922 15.526-8.075 22.827-11.51 31-14.589 2.475-.932 5.281-2.098 6.236-2.592.955-.493 2.237-.897 2.849-.897.612 0 2.531-.601 4.264-1.335 4.871-2.065 9.901-3.814 12.651-4.401 3.44-.733 4.843-2.014 6.769-6.184 2.164-4.687 2.545-32.881.551-40.879-.726-2.914-1.32-6.386-1.32-7.715 0-3.989-4.961-5.739-8.559-3.018" fill="undefined" fill-rule="evenodd"/></svg>