<svg xmlns="http://www.w3.org/2000/svg" width="1240" height="1240"><path d="M724.982 26.759c-1.365 2.583-4.452 7.631-6.861 11.219-2.408 3.587-4.815 7.759-5.348 9.272-.533 1.513-1.35 2.75-1.816 2.75-.807 0-1.933 1.756-5.449 8.5-.86 1.65-3.352 5.7-5.537 9-2.186 3.3-4.467 7.237-5.07 8.75-.603 1.513-1.43 2.75-1.838 2.75-.408 0-1.269 1.013-1.913 2.25-.644 1.237-2.067 3.6-3.161 5.25-1.095 1.65-2.554 4.125-3.243 5.5-.689 1.375-1.984 3.625-2.876 5-.893 1.375-3.749 5.875-6.348 10-2.599 4.125-5.579 8.719-6.623 10.21-1.045 1.49-1.899 3.225-1.899 3.855 0 .631-1.132 2.561-2.515 4.291-3.632 4.54-3.87 4.887-5.253 7.644-.689 1.375-2.036 3.698-2.993 5.162-.956 1.464-3.001 4.839-4.542 7.5-3.623 6.251-3.475 6.019-8.447 13.276-2.337 3.412-4.25 6.463-4.25 6.779 0 .317-1.462 2.877-3.25 5.689-1.788 2.812-3.7 5.829-4.25 6.704-.55.875-2.288 3.529-3.861 5.897-1.574 2.368-3.95 6.352-5.279 8.853-1.33 2.5-3.03 5.242-3.78 6.093-.749.851-2.213 3.122-3.254 5.047-1.04 1.925-3.216 5.525-4.833 8-1.618 2.475-3.516 5.512-4.217 6.75-.702 1.238-1.848 3.262-2.547 4.5-1.207 2.137-2.241 3.762-10.663 16.75-4.777 7.368-5.79 9.076-7.053 11.894-.59 1.317-2.297 4.017-3.793 6-2.519 3.339-3.806 5.386-6.673 10.606-.604 1.1-2.428 4.025-4.052 6.5-3.983 6.067-5.19 8.054-6.682 11-.697 1.375-2.655 4.525-4.352 7-1.697 2.475-3.398 5.175-3.78 6-.382.825-2.471 4.2-4.643 7.5-2.172 3.3-6.252 9.825-9.067 14.5a1168.898 1168.898 0 0 1-9.517 15.5c-2.419 3.85-4.411 7.563-4.426 8.25-.016.688-.427 1.25-.914 1.25-.487 0-2.797 3.262-5.133 7.25s-5.649 9.504-7.364 12.259a5531.002 5531.002 0 0 0-4.349 7c-6.291 10.169-11.327 18.175-11.978 19.042-.858 1.141-3.011 4.768-4.719 7.949-.59 1.1-2.423 4.032-4.072 6.516-4.616 6.953-5.424 8.298-6.531 10.878-.566 1.317-2.299 4.017-3.853 6-2.592 3.309-10.655 16.492-14.019 22.922-.773 1.476-1.683 2.909-2.023 3.184-.656.53-4.23 5.814-5.073 7.5-.918 1.837-12.09 19.923-16.059 26-2.156 3.3-4.366 7.019-4.911 8.264-.912 2.083-4.829 8.062-6.05 9.236-.287.275-1.079 1.625-1.761 3-.682 1.375-2.023 3.689-2.98 5.142-.956 1.454-3.295 5.279-5.196 8.5-1.902 3.222-3.823 6.308-4.27 6.858-1.068 1.315-11.773 18.622-11.773 19.034 0 .176-2.286 3.771-5.08 7.991-2.795 4.219-6.086 9.562-7.315 11.874-1.229 2.311-3.668 6.286-5.42 8.832-1.752 2.546-3.185 4.89-3.185 5.209 0 .319-1.463 2.736-3.25 5.37-5.288 7.793-9.852 15.762-9.409 16.43.087.133 57.309.47 127.159.75l127 .51.338 2.97c.185 1.633-.377 5.346-1.25 8.25-2.768 9.203-4.504 15.671-5.177 19.28-.358 1.925-1.273 4.715-2.031 6.2-.759 1.486-1.38 4.32-1.38 6.3 0 1.98-.662 4.88-1.471 6.445-.81 1.565-1.763 4.805-2.118 7.2-.356 2.395-1.269 5.352-2.029 6.57S610 666.31 610 667.997c0 1.687-.624 4.561-1.387 6.387-.763 1.826-1.709 5.223-2.102 7.55-.393 2.326-1.341 5.43-2.107 6.898-.765 1.467-1.394 3.809-1.398 5.203-.003 1.394-.906 5.095-2.006 8.225-1.1 3.129-2.016 6.714-2.035 7.965-.02 1.251-.679 3.4-1.465 4.775-.786 1.375-1.455 3.85-1.487 5.5-.031 1.65-.947 4.962-2.035 7.359-1.088 2.398-1.978 5.487-1.978 6.866 0 2.37-1.252 7.003-4.669 17.275-.823 2.475-1.869 6.556-2.325 9.07-.456 2.513-1.543 6.28-2.417 8.372-.874 2.091-1.605 4.985-1.624 6.43-.02 1.445-.679 3.753-1.465 5.128s-1.461 4.3-1.5 6.5c-.039 2.2-.714 5.125-1.5 6.5s-1.439 3.4-1.45 4.5c-.019 1.824-1.776 8.285-5.611 20.634-.791 2.549-1.439 5.57-1.439 6.713 0 1.144-.9 4.362-2 7.153-1.1 2.791-2 6.184-2 7.541 0 1.356-.9 4.145-2 6.198-1.1 2.052-2 5.374-2 7.382s-.672 4.939-1.494 6.515c-.821 1.575-1.496 3.847-1.5 5.049-.003 1.202-.505 3.452-1.116 5-.61 1.548-1.701 5.29-2.423 8.315-2.401 10.048-3.658 14.452-5.571 19.519-1.043 2.761-1.896 5.967-1.896 7.125 0 1.157-.675 4.018-1.5 6.356s-1.5 5.271-1.5 6.517c0 1.245-.89 4.226-1.978 6.624-1.088 2.397-2.004 5.934-2.035 7.859-.032 1.925-.701 4.625-1.487 6-.786 1.375-1.455 3.85-1.487 5.5-.031 1.65-.947 4.962-2.035 7.359-1.088 2.398-1.978 5.283-1.978 6.412 0 2.002-1.237 6.729-5.102 19.5-1.044 3.449-1.898 7.522-1.898 9.05 0 1.528-.448 3.227-.996 3.775s-1.488 3.676-2.088 6.95c-.6 3.275-1.667 6.629-2.372 7.454-.704.825-1.532 4.087-1.84 7.25-.439 4.515-.26 5.75.833 5.75.766 0 1.926-1.012 2.578-2.25.651-1.237 3.246-5.4 5.765-9.25 2.52-3.85 5.418-8.575 6.441-10.5 1.022-1.925 2.89-5.075 4.15-7 7.238-11.058 11.819-18.439 14.061-22.657 1.394-2.621 2.885-5.008 3.312-5.305.428-.296 2.505-3.463 4.616-7.038 2.11-3.575 5.345-8.826 7.188-11.669 1.844-2.844 3.352-5.515 3.352-5.936 0-.421.853-1.695 1.895-2.831 1.042-1.135 2.74-3.639 3.774-5.564 1.034-1.925 2.735-4.85 3.78-6.5l5.062-8c1.74-2.75 3.477-5.675 3.86-6.5.383-.825 2.481-4.2 4.662-7.5s4.428-7.075 4.994-8.389c.566-1.314 2.158-3.731 3.538-5.371 1.38-1.64 3.166-4.39 3.97-6.111.803-1.721 2.249-4.295 3.213-5.719 5.401-7.986 7.255-10.95 7.28-11.64.03-.806 7.102-11.878 8.939-13.994.584-.672 1.523-2.247 2.085-3.5.563-1.252 2.786-4.976 4.94-8.276 2.154-3.3 6.063-9.6 8.688-14 2.624-4.4 6.695-10.763 9.046-14.139 2.351-3.377 4.274-6.579 4.274-7.116 0-.536.871-2.083 1.935-3.436 1.065-1.353 2.996-4.451 4.291-6.885 1.295-2.433 4.282-7.26 6.637-10.727 2.356-3.466 4.927-7.741 5.715-9.5.787-1.758 3.424-5.897 5.86-9.197 2.435-3.3 4.458-6.502 4.495-7.115.037-.613 1.014-2.319 2.172-3.791 1.158-1.472 3.07-4.404 4.25-6.517 2.631-4.71 10.965-18.151 14.619-23.577 1.482-2.2 2.964-4.747 3.294-5.66.33-.914 2.613-4.541 5.073-8.06 2.46-3.52 5.167-8.06 6.015-10.09.848-2.029 1.942-3.69 2.431-3.69.489 0 2.115-2.362 3.615-5.25 3.599-6.932 4.524-8.442 8.358-13.65 1.782-2.42 3.24-4.939 3.24-5.597 0-.658.944-2.278 2.098-3.6 1.153-1.322 2.958-3.978 4.01-5.903 1.052-1.925 2.46-4.4 3.128-5.5 4.252-7.001 6.087-9.906 11.111-17.584 3.089-4.721 6.293-10.202 7.119-12.181.827-1.979 1.954-3.876 2.504-4.216 1.18-.729 7.435-11.327 12.111-20.519 1.818-3.575 4.072-7.4 5.007-8.5.936-1.1 2.54-3.575 3.566-5.5 1.025-1.925 3.501-5.975 5.501-9 2-3.025 4.492-7.075 5.537-9 1.045-1.925 4.017-6.729 6.604-10.675 2.587-3.946 4.704-7.627 4.704-8.179 0-.552.563-1.61 1.25-2.352 2.281-2.46 5.75-7.698 5.75-8.682 0-.533.584-1.564 1.299-2.291.714-.726 2.851-3.957 4.75-7.179 1.898-3.221 4.126-6.873 4.951-8.114.825-1.242 2.831-4.456 4.457-7.143 1.626-2.687 4.354-6.91 6.062-9.385 1.708-2.475 3.403-5.293 3.766-6.262.641-1.708 7.96-13.443 11.816-18.948 1.045-1.49 1.899-3.145 1.899-3.678 0-.533.584-1.564 1.299-2.291.714-.726 2.851-3.957 4.75-7.179 1.898-3.221 4.126-6.903 4.951-8.181 4.37-6.769 9-14.704 9-15.426 0-.451-.712-1.094-1.582-1.428-.87-.334-58.004-.607-126.965-.607-123.204 0-125.401-.034-126.424-1.946-.755-1.411-.646-3.131.395-6.25.79-2.367 1.752-6.104 2.138-8.304.386-2.2 1.077-4.73 1.536-5.622.46-.892 1.497-4.492 2.307-8 .809-3.508 2.436-9.753 3.616-13.878 1.179-4.125 2.528-9.3 2.996-11.5.469-2.2 2.018-8.05 3.442-13 1.425-4.95 3.2-11.475 3.945-14.5.745-3.025 2.324-8.875 3.508-13 1.185-4.125 2.588-9.3 3.117-11.5.53-2.2 2.101-8.05 3.492-13 1.391-4.95 3.137-11.475 3.881-14.5.743-3.025 2.307-8.988 3.475-13.25 2.693-9.832 5.919-21.813 7.605-28.25.72-2.75 2.276-8.375 3.458-12.5 1.182-4.125 2.499-9.3 2.928-11.5.428-2.2 1.273-5.575 1.877-7.5 2.62-8.347 5.05-17.27 8.712-32 .889-3.575 2.008-7.85 2.487-9.5.857-2.949 2.286-8.113 5.533-20 .902-3.3 2.062-7.8 2.577-10 .516-2.2 2.088-8.05 3.494-13 1.406-4.95 2.957-10.8 3.448-13 1.47-6.591 3.935-15.803 5.085-19 .593-1.65 1.662-5.475 2.376-8.5.713-3.025 2.22-8.875 3.349-13a4407.41 4407.41 0 0 0 5.131-19c1.694-6.325 4.913-18.25 7.155-26.5 4.671-17.195 5.998-23.697 5.043-24.718-.37-.396-1.789 1.394-3.153 3.977M362.5 746.92c-1.1.323-3.515 1.411-5.367 2.419-1.852 1.008-4.172 1.623-5.156 1.365-.984-.257-3.069.376-4.633 1.408-1.564 1.031-4.125 1.878-5.69 1.881-1.565.004-4.15.936-5.744 2.071-1.594 1.135-3.688 1.93-4.654 1.767-.966-.163-2.869.483-4.229 1.436-1.359.953-3.667 1.733-5.127 1.733s-3.195.65-3.854 1.445c-.66.795-3.528 1.947-6.373 2.559-2.845.613-6.748 1.965-8.673 3.004-4.45 2.402-7.379 3.761-13 6.033-10.226 4.133-19.769 8.567-24 11.153-2.475 1.512-8.325 4.656-13 6.986-4.675 2.329-8.804 4.677-9.177 5.218-.372.54-1.999 1.684-3.615 2.542-10.212 5.421-12.972 7.071-14.102 8.432-.697.84-3.256 2.491-5.687 3.667-2.43 1.177-4.419 2.523-4.419 2.992 0 .468-2.754 2.32-6.121 4.114-3.366 1.794-7.051 4.521-8.188 6.059-1.137 1.538-2.57 2.796-3.184 2.796-1.301 0-14.418 10.577-16.249 13.103-.684.942-5.78 6.142-11.325 11.555-9.688 9.457-18.933 20.345-18.933 22.296 0 .513-.852 1.53-1.894 2.259-1.946 1.363-5.746 7.118-11.085 16.787-1.67 3.025-3.417 6.175-3.882 7-2.15 3.813-7.675 17.943-8.703 22.259-.362 1.518-1.058 3.007-1.547 3.309-.489.303-.889 2.058-.889 3.902 0 1.843-.894 6.204-1.987 9.691-2.875 9.172-2.883 38.679-.013 46.839 1.064 3.025 1.952 7.075 1.974 9 .021 1.925.636 4.645 1.366 6.044.73 1.399 1.607 3.943 1.95 5.654.342 1.71 1.947 5.965 3.567 9.456 1.62 3.49 3.245 7.359 3.611 8.596.367 1.237 1.056 2.25 1.532 2.25s1.176 1.013 1.557 2.25c.38 1.237 2.959 5.625 5.73 9.75 2.77 4.125 6.782 10.092 8.914 13.26 4.81 7.147 40.373 42.728 47.245 47.269 10.983 7.258 14.133 9.492 16.054 11.383 1.1 1.083 4.137 2.88 6.75 3.993 2.612 1.113 4.75 2.49 4.75 3.059 0 .57.83 1.036 1.845 1.036 1.015 0 2.622.858 3.571 1.908.95 1.049 3.832 2.883 6.405 4.075 2.574 1.192 6.479 3.255 8.679 4.585s5.35 3.103 7 3.94c1.65.837 3.675 1.929 4.5 2.427.825.498 5.55 2.833 10.5 5.189s9.15 4.642 9.333 5.08c.184.438 1.36.796 2.615.796 1.255 0 3.355.799 4.667 1.776 3.267 2.434 6.631 3.949 11.519 5.189 2.273.577 4.691 1.721 5.372 2.542.681.821 2.272 1.493 3.535 1.493 1.263 0 3.571.647 5.128 1.437 4.354 2.21 13.057 5.563 14.438 5.563.679 0 2.019.709 2.977 1.576.958.867 3.323 1.702 5.255 1.855 1.933.153 4.254 1.019 5.159 1.924.905.905 2.877 1.645 4.382 1.645 1.506 0 3.611.661 4.679 1.468 1.067.808 2.809 1.483 3.871 1.5 2.192.036 13.111 3.405 19.02 5.869 2.173.906 4.733 1.515 5.689 1.352.957-.162 3.652.629 5.988 1.758 2.337 1.129 5.536 2.053 7.11 2.053 1.574 0 4.182.683 5.795 1.517 1.614.834 5.079 1.797 7.701 2.14 2.622.343 5.998 1.244 7.502 2.001 1.504.758 4.654 1.546 7 1.752 2.346.207 6.065 1.079 8.265 1.939 2.2.86 5.837 1.583 8.083 1.607 2.246.024 4.393.353 4.771.731.76.761.816.769 12.146 1.77 4.4.389 9.61 1.31 11.578 2.048 1.967.737 8.267 1.858 14 2.491 5.732.632 11.827 1.583 13.544 2.112 1.717.53 7.342 1.138 12.5 1.352 5.158.213 12.978 1.082 17.378 1.929 4.4.848 12.275 1.589 17.5 1.647 5.225.059 13.1.507 17.5.997 16.672 1.855 31.402 2.284 77.5 2.257 32.637-.019 48.808-.388 51.68-1.179 2.298-.632 12.873-1.597 23.5-2.144 10.626-.546 21.345-1.444 23.82-1.995 2.475-.55 8.591-1.165 13.592-1.367 5-.201 9.95-.801 11-1.333 1.049-.532 6.633-1.533 12.408-2.224 5.775-.691 11.85-1.624 13.5-2.073 1.65-.45 5.7-1.106 9-1.458 3.3-.352 9.234-1.528 13.188-2.614 3.953-1.085 8.3-1.693 9.661-1.352 1.51.379 4.204-.144 6.918-1.345 2.445-1.081 6.277-1.992 8.516-2.022 2.238-.031 5.431-.76 7.094-1.62 1.663-.86 4.515-1.564 6.338-1.564 1.823 0 4.994-.9 7.046-2 2.053-1.1 4.632-2 5.731-2 1.1 0 4.693-.932 7.985-2.071 3.291-1.139 6.371-1.832 6.843-1.54.473.292 2.505-.351 4.516-1.429s4.922-1.96 6.469-1.96c1.547 0 3.686-.661 4.754-1.468 1.067-.808 3.303-1.483 4.968-1.5 1.666-.018 4.085-.773 5.378-1.678 1.293-.905 3.722-1.806 5.4-2.001 1.677-.195 4.079-1.03 5.337-1.854 1.258-.824 3.316-1.502 4.573-1.506 1.257-.003 3.635-.9 5.285-1.993 1.65-1.093 4.211-1.99 5.691-1.993 1.48-.004 2.969-.457 3.309-1.007.34-.55 1.429-1 2.419-1 .991 0 3.391-1.079 5.334-2.397 1.943-1.318 5.043-2.726 6.89-3.128 1.846-.402 4.245-1.348 5.33-2.103 1.084-.754 2.717-1.372 3.627-1.372.91 0 2.215-.675 2.9-1.5s2.133-1.5 3.218-1.5 3.168-.624 4.628-1.387 3.779-1.885 5.154-2.493c1.375-.608 3.175-1.528 4-2.044.825-.517 5.325-2.791 10-5.054 8.565-4.146 13.899-7.003 24-12.855 3.025-1.753 6.85-3.837 8.5-4.631 1.65-.795 5.025-2.814 7.5-4.486 2.475-1.673 5.025-3.043 5.667-3.046.641-.002 1.316-.342 1.5-.754.316-.711 4.704-3.716 11.333-7.76 1.65-1.007 3.588-2.654 4.307-3.66.718-1.007 1.772-1.83 2.342-1.83 2.212 0 14.86-11.055 29.82-26.062 12.504-12.544 18.296-19.375 25.291-29.83 8.935-13.353 9.74-14.658 9.74-15.797 0-.587.675-1.626 1.5-2.311s1.5-2.035 1.5-3c0-.965.675-2.315 1.5-3s1.5-2.113 1.5-3.174c0-1.062.851-3.594 1.891-5.628 2.499-4.889 4.13-9.702 5.151-15.198.459-2.475 1.59-6.975 2.512-10 2.431-7.977 2.535-42.772.144-48.308-.904-2.095-1.947-6.145-2.316-9-.369-2.856-1.281-6.08-2.026-7.165-.746-1.084-1.356-2.835-1.356-3.89 0-1.737-2.888-8.859-5.125-12.637-.488-.825-1.146-2.175-1.463-3-2.077-5.42-9.726-18.941-14.412-25.477-4.15-5.79-24.537-29.186-25.861-29.68-.506-.189-5.437-4.554-10.957-9.701-5.52-5.147-11.756-10.513-13.859-11.924-2.103-1.412-5.669-4.063-7.926-5.892-2.257-1.829-4.538-3.326-5.07-3.326s-2.51-1.386-4.397-3.08c-1.886-1.694-4.893-3.696-6.68-4.449-1.788-.753-3.25-1.867-3.25-2.475 0-.609-2.475-2.24-5.5-3.625-3.025-1.385-5.5-2.891-5.5-3.346 0-.456-1.237-1.315-2.75-1.909-3.301-1.296-13.28-6.688-14.914-8.059-.641-.537-2.31-1.263-3.709-1.615-1.4-.351-3.069-1.269-3.708-2.04-.64-.771-1.939-1.402-2.886-1.402-.948 0-2.538-.9-3.533-2-.995-1.1-2.81-2-4.033-2-1.222 0-2.789-.683-3.482-1.518-1.394-1.68-5.553-3.711-11.155-5.447-2.019-.625-4.211-1.789-4.872-2.586-.662-.797-2.443-1.449-3.958-1.449-1.515 0-3.315-.675-4-1.5s-2.246-1.5-3.469-1.5c-1.224 0-3.252-.89-4.507-1.979-1.254-1.088-3.803-2.264-5.664-2.613-1.86-.349-3.629-1.034-3.93-1.521-.301-.488-1.759-.901-3.239-.919-1.48-.017-3.565-.692-4.632-1.5-1.068-.807-3.093-1.471-4.5-1.475-1.408-.003-3.909-.9-5.559-1.993-1.65-1.093-4.227-1.99-5.726-1.993-1.499-.004-4.145-.87-5.88-1.926-1.736-1.055-3.728-1.698-4.428-1.43-.699.269-3.098-.443-5.329-1.581-4.103-2.093-8.702-2.651-10.76-1.305-.618.404-1.702 4.11-2.41 8.235-.707 4.125-1.656 7.986-2.108 8.58-.452.594-.862 9.594-.912 20-.072 15.108.227 19.669 1.482 22.638.864 2.045 1.571 4.654 1.571 5.798 0 2.869 4.487 6.763 9.402 8.158 2.254.64 4.526 1.537 5.048 1.995.523.457 2.098.845 3.5.863 1.403.017 3.424.692 4.491 1.5 1.068.807 2.871 1.468 4.008 1.468s4.18 1.125 6.763 2.5 5.59 2.5 6.683 2.5 2.265.45 2.605 1c.34.55 1.379 1.007 2.309 1.015.93.008 2.816.66 4.191 1.45 6.596 3.787 12.542 6.535 14.137 6.535.97 0 3.698 1.293 6.063 2.874 2.365 1.581 5.272 3.174 6.46 3.539 1.188.365 2.705 1.322 3.372 2.126.667.803 1.852 1.461 2.633 1.461.781 0 3.93 1.913 6.998 4.25 3.068 2.337 6.317 4.7 7.221 5.25 11.056 6.726 15.829 10.823 28.616 24.571 6.068 6.523 11.672 16.553 14.766 26.429 2.134 6.812 2.288 23.239.263 28.085-.841 2.012-1.529 4.899-1.529 6.415 0 1.515-.631 3.279-1.402 3.919-.771.639-1.688 2.305-2.039 3.7-.35 1.396-2.43 4.865-4.623 7.709a2158.683 2158.683 0 0 0-5.888 7.672c-3.783 4.972-13.926 14.509-18.548 17.439-1.65 1.046-5.025 3.515-7.5 5.486-5.563 4.43-7.182 5.446-13.592 8.535-2.8 1.35-5.668 3.148-6.372 3.997-.705.849-2.057 1.543-3.005 1.543-.949 0-2.763.9-4.031 2-1.268 1.1-3.25 2.01-4.403 2.022-1.153.012-3.222.902-4.597 1.978-1.375 1.076-3.201 1.966-4.059 1.978-.857.012-2.432.683-3.5 1.49-1.067.808-2.898 1.483-4.069 1.5-1.17.018-2.687.707-3.372 1.532-.685.825-2.304 1.5-3.597 1.5-1.294 0-5.402 1.398-9.128 3.108-3.726 1.709-7.844 3.303-9.15 3.542-1.307.239-4.007 1.293-6 2.343-4.093 2.155-13.078 5.004-15.813 5.014-.997.003-3.162.9-4.812 1.993-1.65 1.093-4.582 1.99-6.515 1.993-1.933.004-5.194.907-7.246 2.007-2.053 1.1-5.421 2.016-7.485 2.035-2.065.02-4.879.679-6.254 1.465s-3.744 1.445-5.265 1.465c-1.521.019-5.346.682-8.5 1.473-17.923 4.494-23.088 5.588-26.326 5.576-1.975-.008-5.8.705-8.5 1.583-2.7.879-8.509 1.963-12.909 2.41-11.249 1.142-22.66 2.806-32 4.668-4.4.876-12.275 1.757-17.5 1.955-5.225.199-11.75.797-14.5 1.328-9.877 1.909-13.24 2.196-29.75 2.539-9.213.191-18.213.793-20 1.336-3.58 1.088-7.009 1.168-49.25 1.149-34.344-.016-44.929-.345-57-1.774-4.95-.586-13.725-1.125-19.5-1.197-5.775-.071-12.75-.575-15.5-1.119s-10.85-1.385-18-1.869-15.475-1.387-18.5-2.005c-3.025-.619-8.381-1.334-11.903-1.588-3.521-.255-8.815-1.164-11.764-2.022-2.949-.857-7.942-1.704-11.097-1.883-3.155-.178-8.211-1.039-11.236-1.913-3.025-.873-7.652-1.594-10.282-1.6-2.63-.007-6.455-.713-8.5-1.57-2.045-.857-5.914-1.61-8.597-1.674-2.683-.063-6.491-.937-8.461-1.942-1.971-1.004-5.304-1.826-7.407-1.826-2.103 0-4.947-.736-6.321-1.636-1.373-.9-4.395-1.626-6.715-1.614-2.377.013-4.969-.639-5.94-1.494-.948-.835-3.423-1.622-5.5-1.749-2.078-.126-5.577-1.022-7.777-1.989-2.2-.968-5.575-2.124-7.5-2.569-8.455-1.954-12.658-3.393-14.851-5.084-1.294-.997-3.886-2.1-5.761-2.452-1.876-.352-3.657-1.039-3.958-1.526-.301-.488-1.771-.887-3.267-.887-1.495 0-3.606-.618-4.69-1.372-1.085-.755-3.404-1.684-5.154-2.065-1.749-.38-3.717-1.338-4.372-2.127-.656-.79-2.432-1.436-3.947-1.436-1.515 0-3.315-.675-4-1.5s-2.029-1.5-2.988-1.5c-.958 0-2.815-.816-4.127-1.813-1.312-.997-4.635-2.642-7.385-3.655-2.75-1.012-6.8-3.06-9-4.549-2.2-1.49-5.125-3.047-6.5-3.461-1.375-.414-3.4-1.539-4.5-2.502-1.1-.962-4.099-2.956-6.665-4.43-2.566-1.474-5.259-3.396-5.985-4.271-.727-.875-3.127-2.731-5.335-4.124-6.379-4.025-15.182-12.964-21.336-21.665-8.995-12.719-12.527-23.157-12.529-37.03-.002-11.24 1.329-16.742 6.648-27.485 3.548-7.164 5.92-10.201 15.237-19.5 9.36-9.344 18.138-16.642 25.277-21.015.898-.55 3.622-2.462 6.054-4.25 2.432-1.788 5.257-3.25 6.278-3.25s1.856-.4 1.856-.888c0-.489 3.488-2.551 7.75-4.582 4.262-2.032 8.875-4.318 10.25-5.081 6.2-3.44 15.416-7.449 17.125-7.449.821 0 2.366-.661 3.434-1.468 1.067-.808 2.898-1.483 4.069-1.5 1.17-.018 2.648-.66 3.285-1.427.637-.768 2.83-1.701 4.873-2.074 2.043-.374 4.624-1.264 5.736-1.979 1.112-.714 3.922-1.62 6.245-2.013 2.322-.392 4.476-1.124 4.787-1.626.31-.502 1.775-.923 3.255-.935 3.736-.031 6.569-2.618 9.287-8.478 2.169-4.676 2.322-6.261 2.362-24.45.04-18.745-.743-25.711-4.269-37.941-.774-2.683-3.684-4.071-6.689-3.189" fill="undefined" fill-rule="evenodd"/></svg>