<svg version="1" xmlns="http://www.w3.org/2000/svg" width="933.333" height="933.333" viewBox="0 0 700.000000 700.000000"><path d="M318.5.6c-1.6.3-8.6 1.1-15.5 2-13.8 1.6-47.1 8.1-48 9.2-.3.4-7.7 2.9-16.5 5.5-8.8 2.7-16.2 5.2-16.5 5.6-.3.4-5.9 2.9-12.5 5.5S196.4 34 195 35c-1.4.9-6.6 3.6-11.5 6-5 2.3-9.9 5-11 5.9-1.1 1-5.4 3.7-9.5 6.1-4.1 2.4-7.7 4.6-8 5-.3.4-4.5 3.4-9.5 6.8-28.9 19.8-62 53.1-81.9 82.1-3.1 4.6-6.8 9.8-8.1 11.6-1.4 1.7-2.5 3.5-2.5 4 0 .4-2 3.7-4.4 7.4-5.4 8.2-17.3 31.8-21.7 43.1-1.8 4.7-3.6 8.7-4 9-.6.5-3.3 8.8-10.9 33-3.5 11-7.1 28.9-9.7 48-2.6 19.4-2.6 74.6 0 94 2.6 19.1 6.2 37 9.7 48 7.6 24.2 10.3 32.5 10.9 33 .4.3 2.2 4.3 4 9 4.4 11.3 16.3 34.9 21.7 43.1 2.4 3.7 4.4 7 4.4 7.4 0 .5 1.1 2.3 2.5 4 1.3 1.8 5 7 8.1 11.6 19.9 29 53 62.3 81.9 82.1 5 3.4 9.2 6.4 9.5 6.8.3.4 3.9 2.6 8 5s8.4 5.1 9.5 6.1c1.1.9 6 3.6 11 5.9 4.9 2.4 10.1 5.1 11.5 6 1.4 1 7.9 4 14.5 6.6 6.6 2.6 12.2 5.1 12.5 5.5.3.4 7.7 2.9 16.5 5.6 8.8 2.6 16.2 5.1 16.5 5.5.8 1.1 33.2 7.4 48.5 9.5 18.7 2.6 74.3 2.6 93 0 15.3-2.1 47.7-8.4 48.5-9.5.3-.4 7.7-2.9 16.5-5.5 8.8-2.7 16.2-5.2 16.5-5.6.3-.4 5.9-2.9 12.5-5.5s13.1-5.6 14.5-6.6c1.4-.9 6.6-3.6 11.5-6 5-2.3 9.9-5 11-5.9 1.1-1 5.4-3.7 9.5-6.1 4.1-2.4 7.7-4.6 8-5 .3-.4 4.6-3.4 9.5-6.8 28.9-19.8 62-53.1 81.9-82.1 3.1-4.6 6.8-9.8 8.1-11.6 1.4-1.7 2.5-3.5 2.5-4 0-.4 2-3.7 4.4-7.4 5.4-8.2 17.3-31.8 21.7-43.1 1.8-4.7 3.6-8.7 4-9 .6-.5 3.3-8.8 10.9-33 3.5-11 7.1-28.9 9.7-48 2.6-19.4 2.6-74.6 0-94-2.6-19.1-6.2-37-9.7-48-7.6-24.2-10.3-32.5-10.9-33-.4-.3-2.2-4.3-4-9-4.4-11.3-16.3-34.9-21.7-43.1-2.4-3.7-4.4-7-4.4-7.4 0-.5-1.1-2.3-2.5-4-1.3-1.8-5-7-8.1-11.6-19.9-29-53-62.3-81.9-82.1-4.9-3.4-9.2-6.4-9.5-6.8-.3-.4-3.9-2.6-8-5s-8.4-5.1-9.5-6.1c-1.1-.9-6-3.6-11-5.9-4.9-2.4-10.1-5.1-11.5-6-1.4-1-7.9-4-14.5-6.6-6.6-2.6-12.2-5.1-12.5-5.5-.3-.4-7.7-2.9-16.5-5.6-8.8-2.6-16.2-5.1-16.5-5.5-.8-1-32.7-7.3-47.5-9.4-8.8-1.3-20.5-1.8-44-1.9-17.6-.2-33.3-.1-35 .1zm59.4 79.9c4.2 4.8 4.3 2.4-1.9 52.2-2 16.9-4.1 34.2-5 41.8-.6 4.4-1.5 11.6-2 16-.6 4.4-1.5 11.6-2 16-.4 4.4-1.2 10.4-1.6 13.4l-.7 5.4 3.4-.7c1.9-.3 9.9-1.3 17.9-2.1 8-.8 17.9-1.9 22-2.5 4.1-.5 12.2-1.4 17.9-2l10.4-1.2 2.5 2.6c1.9 1.8 2.6 3.8 2.9 7.8.4 5-.7 8.2-17.5 50.3-18 45.1-24.9 62.4-46.7 117.5-22.4 56.6-25.6 64.5-27.1 66.7-2.2 3.4-6.9 3.1-10.5-.8-2.4-2.6-2.9-3.9-2.9-8.4 0-4.9 1.6-19.6 4-37 .5-3.9 1.9-15.1 3-25 1.2-9.9 3.7-30.5 5.6-45.8 1.9-15.3 3.2-28.1 3-28.5-.5-.9-27.4 1.4-33.3 2.8-2.3.5-7 1-10.5 1s-10.3.5-15.2 1.1c-10.3 1.3-12.6.5-15.1-4.6-2.4-5.1-1.9-7.8 4.1-22.9 3.1-7.7 7.5-19.1 9.9-25.1 26.2-66.5 34.1-86.5 38.2-97 1.9-5 8.1-20.7 13.8-35 5.6-14.3 12.9-32.7 16.1-40.8 3.2-8.1 6.6-15.7 7.6-16.7 2.8-3 6.2-2.5 9.7 1.5zM176 165.9c.5 2 1.6 11 2.5 20.1 3.8 39.6 8 76.8 8.7 77.5.4.4 11.5-3.4 27.8-9.5 18.8-7 19.6-7 22.7-2.4 1.8 2.8 1.4 10.7-1.2 28.4-.8 5.2-2.4 16.7-3.5 25.5-3 22.3-4.4 32.7-7.9 58-1.7 12.1-3.8 26.9-4.5 33-3.7 27.9-4.9 36.1-5.8 37.7-2 3.9-8.6 1.5-10.2-3.7-.6-2.3-3.5-26.1-4.2-35.5-.6-8-3.2-32.8-3.8-35.5-.2-1.1-.9-8-1.6-15.3-1.3-12.7-1.4-13.2-3.4-12.6-9.2 2.7-12.3 3.9-13.8 5.2-1 .8-3.1 1.5-4.8 1.4-1.6 0-3 .4-3 .9s-.8.9-1.8.9c-1.1 0-5.9 1.3-10.8 3l-8.9 2.9-3.2-2.2c-1.8-1.2-3.5-2.7-3.7-3.3-.3-.7.2-5.4 1-10.5.7-5.2 3.4-25.2 5.9-44.4 2.5-19.3 5.1-39.3 5.9-44.5 1.3-9.1 4.1-30.2 5.1-38.5.3-2.1.9-7.3 1.5-11.5 1.2-9.1 1.8-13.4 2.9-22.2 1-7.6 1.5-8.6 4.5-9.8 2.8-1 6.3 2.1 7.6 6.9zm366-.9c1.7 4 .9 9.8-3.3 25-5.9 21.4-10.4 38.4-11 41.5-.3 1.6-1.9 7.9-3.7 14-3.8 13.6-5.1 19.8-4.2 20.6.4.4 6.1.9 12.7 1.3 36.8 1.7 37.8 1.9 37.7 9.2 0 4-1.4 7-13.9 29.3-3.4 6.2-6.3 11.5-6.3 11.6 0 .5-20.4 37.6-23.8 43.2-1.7 2.9-5.6 9.8-8.6 15.5-22.3 41.9-32.3 59.3-34.2 59.6-1.1.1-3-.7-4.3-1.9-2.1-2-2.3-2.8-1.8-7.8.5-5.2 4.3-21 8.8-36.1 2.9-9.6 14.9-56.8 14.9-58.4 0-1.6-11.3-2.8-17.8-1.9-2.9.4-4.2.2-4.2-.6 0-.7-.4-1-.9-.7-.5.3-6 0-12.2-.6-10.5-1.1-13.9-2.2-13.9-4.6 0-.5-.7-1.5-1.5-2.2-1.9-1.6-2-4.6-.1-5.3.7-.3 2.3-2.5 3.6-4.9 5.9-11.4 37.9-70.5 43-79.3 3.1-5.5 8.3-15 11.5-21 8-15.2 23.4-43.5 25.1-46.3 2.2-3.4 6.8-3 8.4.8zM113 298.9c0 1.7-.4 3.3-1 3.6-.5.3-1 1.9-1 3.6 0 1.6-.4 2.9-1 2.9-.5 0-1 1.2-1 2.7 0 1.6-.7 3.7-1.5 4.7-.8 1.1-1.5 3.4-1.5 5.2 0 1.8-.4 3.5-.9 3.8-1.5 1-2.4 11.8-2.4 30.1 0 18.1.7 26.2 2.4 28 .5.5.9 2.4.9 4.2 0 1.8.5 3.3 1 3.3.6 0 1 .5 1 1.1 0 2.4 10.9 24.9 12.1 24.9.4 0 1.1 1 1.5 2.2.7 2.3 7.3 10.8 13.8 17.7 4.8 5.1 20.6 18.4 24.7 20.8 1.6 1 2.9 2.1 2.9 2.5 0 .4.5.8 1.2.8.6 0 1.9.6 2.7 1.4.9.8 3.4 2.4 5.6 3.6 2.2 1.3 6.3 3.6 9 5.1 2.8 1.6 7.5 4 10.5 5.5 3 1.4 6.3 3 7.2 3.5 1 .5 2.5.9 3.3.9.8 0 1.5.4 1.5 1 0 .5.5 1 1.1 1 .6 0 2.5.6 4.2 1.4 7 3 8.9 3.6 10.7 3.6 1.1 0 2 .4 2 1 0 .5 1.1 1 2.5 1s3.3.4 4.3.9c4.3 2.1 14.2 5.1 19.5 5.8 2 .3 4 .9 4.3 1.4.3.5 2.2.9 4.3.9 2 0 4.1.4 4.6.9.6.5 3 1.1 5.5 1.4 10.8 1.3 18.3 2.7 19.4 3.6 1.8 1.5 16.7 2.2 59.5 2.7 26.8.3 40.8.1 41.5-.6.5-.5 4.5-1 8.7-1 4.5 0 9.1-.6 11.2-1.5 2-.8 5.6-1.5 8-1.5 2.4 0 4.7-.4 5.3-.9.5-.5 2.9-1.1 5.4-1.4 2.5-.3 6.6-1 9.3-1.6 2.6-.6 6.6-1.5 9-2 8.3-1.8 12-3 13-4 .6-.6 2.3-1.1 3.8-1.1s3.1-.4 3.4-1c.3-.5 1.7-1 3-1s2.7-.4 3-1c.3-.5 1.7-1 3-1s2.7-.5 3-1c.3-.6 1.4-1 2.5-1 1 0 4-1.1 6.7-2.4 2.6-1.3 7.1-3.3 9.8-4.6 7.5-3.3 7.6-3.4 20.9-10.9 7-4 15.1-9.3 15.4-10.2.2-.5.8-.9 1.4-.9 1.5 0 16.3-12.7 23.5-20.1 6.6-6.9 13.8-16.2 16.9-21.9 1-1.9 2.1-3.7 2.4-4 .6-.5 3.3-6.1 7.4-15.3 1.4-3.2 2.6-7.1 2.6-8.7 0-1.7.5-3 1-3 .6 0 1-1.7 1-3.8 0-2.1.5-4.3 1-4.8 1.5-1.5 1.5-37.7.1-40.3-.6-1.1-1.1-3.8-1.1-6s-.4-4.3-1-4.6c-.5-.3-1-1.5-1-2.6 0-2.5-3-12-4.1-13.3-.5-.6-.9-2-.9-3.2 0-1.3-.4-2.6-1-2.9-.5-.3-1-1.9-1-3.6 0-2.2.5-2.9 2-2.9 2 0 2.9.7 9.8 6.5 4.1 3.5 17.2 19 17.2 20.3 0 .5 1.2 2.1 2.6 3.6 1.5 1.4 2.3 2.6 1.9 2.6-.5 0-.2.8.6 1.7 1.4 1.8 3 4.5 4.9 8.3.6 1.1 1.5 2.9 2 4 .6 1.1 1 2.6 1 3.4 0 .7.7 1.9 1.5 2.6.8.7 1.5 2.3 1.5 3.6 0 1.2.5 2.6 1 2.9.6.3 1 1.9 1 3.4s.7 3.6 1.5 4.7c2.2 2.9 2.2 66.5 0 68.8-.8.8-1.5 2.2-1.5 3.2 0 2.2-1.8 8.1-3.6 11.6-.8 1.4-1.4 3.3-1.4 4.2 0 .9-.4 1.6-1 1.6-.5 0-1 .7-1 1.5s-.4 2.3-.9 3.3c-.5.9-2.5 4.8-4.4 8.7-3.8 8-5.9 11.8-6.8 12.5-.3.3-1.4 1.8-2.3 3.5-1.7 3-2.5 4.1-10.6 15-6.9 9.2-31.5 33.5-40 39.5-3.8 2.7-4.1 2.9-8.4 6.4-1.6 1.3-4.1 3-5.5 3.8-1.4.7-2.8 1.6-3.1 1.9-1 1.2-12.1 7.9-13 7.9-.6 0-1 .3-1 .8 0 .4-1.7 1.5-3.7 2.5-2.1 1-5.1 2.6-6.8 3.6-1.6 1.1-3.8 2-4.7 2-1 .1-1.8.5-1.8 1.1 0 .5-.6 1-1.3 1-.8 0-4.7 1.6-8.8 3.6-4.1 2-8.4 4-9.6 4.5-5.3 2.1-7.9 3.2-9.5 4-1 .5-2.4.9-3.2.9-.7 0-2.7.7-4.2 1.5-1.6.8-3.7 1.5-4.6 1.5-.9 0-2 .4-2.3 1-.3.5-1.7 1-3 1s-2.6.4-2.9.9c-.6.8-3.1 1.4-11.9 2.7-2 .4-4 1-4.3 1.5-.3.5-1.9.9-3.5.9-1.7 0-3.9.5-5 1.1-2.9 1.5-17.4 4.2-31.7 5.8-4 .4-7.8 1.3-8.4 1.9-.9.9-13.3 1.2-45.6 1.2-36.5 0-45-.3-47.5-1.4-1.8-.8-5.7-1.7-8.7-2-10.8-1-27-4-29.9-5.5-1.1-.6-3.3-1.1-5-1.1-1.6 0-3.2-.4-3.5-.9-.3-.5-2.3-1.1-4.3-1.5-8.8-1.3-11.3-1.9-11.9-2.7-.3-.5-1.4-.9-2.5-.9-1 0-2.7-.4-3.7-.9-.9-.5-3.9-1.7-6.7-2.6-5.3-1.8-8.9-3.2-11.7-4.6-1-.5-2.7-.9-3.8-.9-1.1 0-2-.5-2-1 0-.6-.6-1-1.3-1-.7 0-4.4-1.6-8.1-3.5-3.8-1.9-7.5-3.5-8.2-3.5-.8 0-1.4-.5-1.4-1 0-.6-.8-1-1.7-1.1-1 0-3.1-.9-4.8-2-1.6-1-4.7-2.6-6.7-3.6-2.1-1-3.8-2.1-3.8-2.5 0-.5-.4-.8-1-.8-1.3 0-12.4-7.1-12.8-8.2-.2-.4-.8-.8-1.4-.8-1 0-8.7-5.1-11-7.3-.7-.7-2.9-2.4-4.8-3.7-13.9-9.7-43.7-41.8-51.1-55-.8-1.4-1.6-2.7-1.9-3-.8-.8-3.2-5.1-6.7-12.5-1.9-3.9-3.9-7.8-4.4-8.7-.5-1-.9-2.5-.9-3.3 0-.8-.4-1.5-1-1.5-.5 0-1-.7-1-1.6 0-.9-.6-2.8-1.4-4.2-1.8-3.7-3.6-9.4-3.6-11.9 0-1.1-.7-2.6-1.5-3.3-2.2-1.8-2.2-65.5 0-68.4.8-1.1 1.5-3.2 1.5-4.7s.5-3.1 1-3.4c.6-.3 1-1.7 1-2.9 0-1.3.7-2.9 1.5-3.6.8-.7 1.5-1.9 1.5-2.6 0-.8.5-2.4 1.2-3.7l2-4c1.5-3.2 3.3-6.2 4.7-8 .8-.9 1-1.7.5-1.7s-.1-.7.8-1.4c1-.7 2.3-2.4 3.1-3.8 1.8-3.5 8.2-11.3 14.7-17.9 10.1-10.2 15-12.5 15-7z"/></svg>