<?xml version="1.0" standalone="no"?>
<!DOCTYPE svg PUBLIC "-//W3C//DTD SVG 20010904//EN"
 "http://www.w3.org/TR/2001/REC-SVG-20010904/DTD/svg10.dtd">
<svg version="1.0" xmlns="http://www.w3.org/2000/svg"
 width="600.000000pt" height="600.000000pt" viewBox="0 0 600.000000 600.000000"
 preserveAspectRatio="xMidYMid meet">
<metadata>
Created by potrace 1.11, written by Peter Selinger 2001-2013
</metadata>
<g transform="translate(0.000000,600.000000) scale(0.100000,-0.100000)"
fill="#000000" stroke="none">
<path d="M2961 5719 c-11 -11 -24 -32 -27 -47 -4 -15 -11 -33 -17 -39 -5 -7
-7 -13 -4 -13 3 0 -1 -16 -9 -35 -8 -19 -12 -35 -9 -35 3 0 -3 -12 -12 -27
-10 -15 -16 -27 -15 -28 8 -1 -11 -75 -19 -75 -5 0 -8 -3 -7 -7 3 -10 -39
-150 -53 -178 -5 -11 -11 -29 -14 -40 -2 -11 -9 -33 -14 -50 -47 -134 -72
-213 -77 -239 -3 -17 -8 -33 -12 -36 -4 -3 -9 -12 -11 -20 -1 -8 -19 -62 -38
-120 -19 -58 -36 -113 -38 -123 -2 -9 -7 -22 -10 -27 -3 -5 -8 -18 -10 -27 -2
-10 -10 -37 -18 -60 -9 -22 -13 -44 -10 -47 4 -3 1 -6 -5 -6 -7 0 -12 -11 -12
-23 0 -13 -3 -27 -7 -31 -4 -3 -8 -16 -10 -28 -2 -12 -8 -27 -13 -33 -5 -7 -7
-15 -3 -18 3 -4 2 -7 -4 -7 -5 0 -10 -6 -10 -12 0 -12 -46 -163 -60 -198 -3
-8 -7 -20 -8 -25 -4 -17 -57 -178 -65 -200 -25 -60 -49 -153 -46 -175 12 -84
41 -97 171 -75 17 3 52 8 80 11 27 3 53 11 57 17 6 9 8 9 8 0 0 -8 9 -9 29 -3
16 4 32 6 35 2 3 -3 6 -1 6 4 0 5 15 10 33 11 36 2 102 10 102 13 0 1 12 3 27
4 14 0 30 4 33 8 4 4 16 3 26 -3 13 -6 19 -6 19 1 0 5 5 10 11 10 7 0 8 -38 3
-117 -3 -65 -8 -143 -9 -173 -2 -30 -4 -55 -5 -55 -2 0 -13 -197 -14 -247 0
-27 -3 -48 -6 -48 -3 0 -6 -42 -7 -93 -4 -148 -9 -212 -17 -225 -4 -7 -2 -12
4 -12 6 0 8 -5 3 -12 -4 -7 -8 -35 -9 -63 -1 -27 -3 -73 -4 -101 -5 -93 41
-149 102 -123 15 6 28 19 28 29 0 9 3 20 7 24 4 3 8 12 9 19 1 7 28 88 59 182
32 93 58 174 59 180 1 5 4 15 7 20 4 6 30 84 59 175 29 91 57 171 62 178 6 6
8 12 4 12 -4 0 0 13 9 30 8 16 15 31 14 32 -5 12 15 78 24 78 6 0 7 3 4 6 -3
4 -2 15 4 26 6 11 12 27 14 36 5 28 56 185 70 217 7 17 16 46 20 65 4 19 12
41 17 48 6 6 7 12 3 12 -4 0 -3 6 3 13 6 6 10 15 11 20 1 19 36 123 44 128 5
3 8 9 7 13 -3 11 12 70 20 81 4 6 13 33 20 60 7 28 19 61 27 73 8 13 12 26 9
29 -3 3 1 18 10 34 8 16 12 29 9 29 -3 0 1 14 10 30 9 17 13 30 11 30 -3 0 5
28 17 63 13 34 22 69 22 77 -4 69 -58 112 -109 87 -12 -6 -16 -6 -12 1 3 6
-12 5 -37 -3 -23 -7 -56 -12 -74 -11 -17 1 -29 -3 -25 -8 3 -5 -2 -7 -11 -3
-9 3 -19 2 -21 -2 -3 -5 -17 -7 -31 -6 -14 2 -25 0 -25 -3 0 -4 -17 -9 -38
-10 -52 -5 -87 -10 -87 -12 0 -1 -11 -3 -25 -5 -50 -7 -80 -14 -91 -21 -8 -5
-9 -3 -4 5 6 10 3 11 -13 2 -29 -15 -75 -15 -66 1 5 7 9 40 10 73 1 33 5 96 8
140 8 112 17 248 21 325 2 36 4 65 5 65 1 0 3 34 5 75 8 136 14 244 21 325 12
155 9 190 -17 219 -32 34 -62 39 -88 15z"/>
<path d="M1162 4894 c-8 -8 -15 -29 -17 -47 -2 -18 -4 -32 -5 -32 -1 0 -3 -16
-6 -35 -2 -19 -6 -55 -10 -80 -3 -25 -7 -58 -9 -75 -1 -16 -6 -48 -9 -71 -4
-23 -8 -59 -11 -80 -2 -21 -7 -59 -11 -84 -3 -25 -8 -58 -9 -75 -2 -16 -6 -50
-9 -75 -4 -25 -9 -62 -11 -84 -3 -21 -7 -50 -9 -65 -3 -14 -8 -46 -11 -71 -4
-25 -9 -54 -11 -65 -3 -11 -7 -45 -10 -75 -8 -77 -11 -101 -17 -135 -3 -16 -8
-57 -12 -90 -4 -32 -9 -68 -11 -79 -2 -11 -5 -35 -6 -53 -1 -18 -6 -33 -11
-33 -4 0 -4 -8 2 -17 5 -9 5 -26 1 -38 -4 -12 -10 -37 -11 -56 -2 -19 -8 -37
-14 -41 -6 -5 -5 -8 3 -8 7 0 11 -3 9 -7 -7 -12 -20 -103 -20 -140 0 -18 -3
-33 -7 -33 -11 0 2 -53 16 -67 7 -7 14 -17 16 -22 4 -12 58 -23 58 -12 0 4 6
8 13 9 20 1 41 7 52 13 15 9 69 23 79 20 5 -1 16 5 26 14 10 9 29 17 42 19 13
1 29 6 36 10 7 4 12 4 12 1 0 -4 14 4 32 16 17 13 28 17 24 10 -6 -9 2 -8 23
3 17 9 31 14 31 11 0 -3 11 2 25 11 14 9 25 15 26 13 0 -2 3 -13 5 -24 3 -11
7 -42 9 -70 3 -27 8 -68 10 -90 6 -50 16 -147 20 -200 1 -22 4 -40 5 -40 4 0
8 -36 15 -117 8 -103 15 -172 21 -218 2 -19 6 -58 9 -86 2 -28 7 -68 10 -90 3
-21 7 -50 9 -64 2 -13 16 -34 30 -47 22 -19 30 -21 51 -11 27 12 37 34 41 93
1 22 3 40 4 40 1 0 4 18 6 40 2 22 5 51 8 65 8 50 15 96 22 155 4 33 8 69 10
80 1 11 3 20 4 20 1 0 3 18 5 40 2 22 7 60 10 85 4 25 9 59 10 75 2 17 4 30 5
30 1 0 3 16 5 35 4 53 15 130 25 175 5 22 11 69 15 105 4 36 9 74 11 85 2 11
6 40 9 65 6 53 12 100 21 155 3 22 7 58 9 80 2 22 4 40 5 40 1 0 3 11 5 25 2
28 14 112 20 150 2 14 6 45 9 70 3 25 8 55 10 67 3 13 0 25 -5 28 -5 4 -7 10
-4 15 10 16 -32 54 -64 56 -17 1 -31 -1 -31 -5 0 -4 -21 -13 -47 -20 -27 -8
-54 -18 -60 -24 -7 -5 -13 -6 -13 -2 0 4 -6 3 -13 -3 -7 -6 -26 -13 -42 -16
-15 -3 -31 -10 -35 -16 -4 -7 -11 -11 -16 -10 -5 0 -18 -2 -29 -6 -37 -11 -45
-14 -57 -17 -7 -1 -18 -6 -24 -9 -5 -4 -29 -13 -51 -21 -39 -13 -41 -13 -38 4
2 10 0 32 -5 49 -6 21 -5 30 3 30 8 0 8 3 2 8 -12 9 -14 17 -19 90 -2 32 -7
78 -11 103 -3 24 -8 64 -10 89 -3 25 -7 65 -10 90 -3 25 -7 63 -9 85 -1 23 -5
46 -9 52 -4 6 -3 14 3 18 6 4 7 11 4 17 -4 5 -8 31 -11 57 -8 92 -22 228 -29
267 -10 67 -69 106 -102 68z"/>
<path d="M4849 4867 c-13 -12 -33 -41 -43 -64 -10 -23 -23 -40 -28 -37 -5 3
-8 0 -6 -7 1 -8 -14 -44 -35 -81 -20 -36 -37 -71 -37 -76 0 -6 -3 -12 -7 -14
-5 -1 -17 -21 -28 -43 -10 -22 -28 -52 -38 -67 -10 -16 -15 -28 -10 -28 4 0 3
-4 -2 -8 -6 -4 -19 -25 -30 -47 -11 -22 -22 -42 -25 -45 -3 -3 -25 -44 -50
-92 -25 -49 -48 -88 -52 -88 -5 0 -8 -7 -8 -16 0 -8 -11 -32 -25 -52 -14 -20
-25 -42 -25 -49 0 -7 -4 -13 -9 -13 -5 0 -14 -15 -22 -32 -7 -18 -15 -35 -18
-38 -3 -3 -30 -52 -60 -110 -30 -58 -63 -121 -74 -140 -11 -19 -34 -62 -51
-95 -17 -33 -33 -62 -36 -65 -3 -3 -16 -27 -30 -55 -14 -27 -37 -70 -51 -95
-35 -63 -50 -108 -38 -116 6 -3 8 -12 6 -18 -10 -26 40 -48 115 -52 40 -2 114
-6 163 -10 50 -3 108 -7 130 -7 22 -1 43 -6 47 -12 5 -6 8 -5 8 3 0 10 4 10
19 0 14 -8 17 -17 11 -27 -4 -9 -8 -19 -9 -23 -1 -5 -1 -9 -2 -10 0 -2 -2 -14
-5 -27 -2 -14 -9 -30 -15 -38 -8 -9 -8 -13 -1 -13 7 0 5 -13 -4 -36 -8 -20
-13 -39 -10 -42 3 -3 1 -11 -4 -18 -6 -6 -13 -25 -15 -40 -2 -16 -9 -45 -14
-64 -33 -120 -42 -158 -45 -180 -1 -14 -8 -35 -14 -47 -7 -12 -14 -32 -16 -45
-3 -13 -5 -23 -6 -23 -1 0 -3 -9 -5 -19 -3 -16 -13 -55 -20 -76 -1 -3 -5 -23
-10 -45 -13 -56 -12 -54 -15 -60 -3 -6 -2 -4 -15 -60 -4 -22 -8 -43 -7 -48 1
-4 -2 -7 -6 -7 -5 0 -8 -10 -6 -22 1 -13 3 -27 3 -33 3 -21 31 -48 53 -50 18
-1 61 27 57 38 -3 7 26 57 33 57 5 0 7 4 3 9 -3 5 2 17 11 25 8 9 13 16 10 16
-4 0 6 19 21 42 14 24 26 49 26 55 0 7 3 13 6 13 3 0 17 21 31 48 13 26 28 50
33 53 5 3 8 9 8 13 -2 11 51 111 63 118 6 4 7 8 3 8 -5 0 1 13 13 30 12 17 19
30 15 30 -3 0 3 9 14 21 11 12 17 27 14 35 -3 8 -1 14 5 14 5 0 19 19 31 43
33 66 93 171 101 177 3 3 17 28 30 55 13 28 32 62 42 78 11 15 16 27 13 27 -3
0 4 15 17 33 13 17 24 34 24 37 9 32 18 50 24 50 5 0 14 16 20 35 6 19 15 35
20 35 6 0 14 17 24 50 0 3 11 21 24 41 12 20 22 41 22 47 0 6 3 12 8 14 4 2
18 26 32 53 14 28 27 52 30 55 11 11 53 104 53 119 2 30 -15 81 -24 75 -5 -3
-9 0 -9 7 0 7 -10 9 -25 7 -14 -3 -25 -1 -25 5 0 5 -7 4 -15 -3 -8 -7 -15 -8
-15 -3 0 5 -27 8 -60 7 -33 -1 -60 1 -60 5 0 3 -41 6 -90 6 -50 0 -90 4 -90
10 0 5 -5 4 -11 -2 -7 -7 -20 -8 -33 -4 -11 4 -31 6 -43 5 -14 -1 -20 3 -16
10 4 6 8 17 9 26 4 26 13 60 18 69 3 5 8 26 12 47 3 20 10 48 15 61 5 13 6 23
4 23 -2 0 0 12 6 28 10 26 15 43 25 90 2 12 16 64 30 115 14 50 27 101 29 112
3 11 15 54 28 95 12 41 22 84 22 95 0 11 3 22 7 25 4 3 9 17 11 30 3 14 10 45
17 70 24 87 16 125 -29 150 -14 7 -24 4 -42 -13z"/>
<path d="M565 3518 c-63 -45 -203 -199 -232 -256 -8 -14 -21 -31 -31 -38 -9
-7 -13 -14 -8 -14 5 0 3 -8 -5 -17 -14 -18 -32 -48 -47 -80 -5 -10 -14 -28
-20 -40 -7 -13 -12 -29 -12 -37 0 -7 -7 -19 -15 -26 -8 -7 -15 -23 -15 -36 0
-12 -4 -26 -10 -29 -5 -3 -10 -19 -10 -34 0 -15 -7 -36 -15 -47 -22 -29 -22
-666 0 -684 8 -7 15 -22 15 -33 0 -25 18 -82 36 -119 8 -14 14 -33 14 -42 0
-9 5 -16 10 -16 6 0 10 -7 10 -15 0 -8 4 -23 9 -33 5 -9 25 -48 44 -87 35 -74
59 -117 67 -125 3 -3 11 -16 19 -30 74 -132 372 -453 511 -550 19 -13 41 -30
48 -37 23 -22 100 -73 110 -73 6 0 12 -4 14 -8 4 -11 115 -82 128 -82 6 0 10
-3 10 -8 0 -4 17 -15 38 -25 20 -10 51 -26 67 -36 17 -11 38 -20 48 -20 9 -1
17 -5 17 -11 0 -5 6 -10 14 -10 7 0 44 -16 82 -35 37 -19 74 -35 81 -35 7 0
13 -4 13 -10 0 -5 9 -10 20 -10 11 0 28 -4 38 -9 28 -14 64 -28 117 -46 28 -9
58 -21 67 -26 10 -5 27 -9 37 -9 11 0 22 -4 25 -9 6 -8 31 -14 119 -27 20 -4
40 -10 43 -15 3 -5 19 -9 35 -9 17 0 39 -5 50 -11 29 -15 191 -45 299 -55 30
-3 69 -12 87 -20 25 -11 110 -14 475 -14 323 0 447 3 456 12 6 6 44 15 84 19
143 16 288 43 317 58 11 6 33 11 50 11 16 0 32 4 35 9 3 5 23 11 43 15 88 13
113 19 119 27 3 5 16 9 29 9 13 0 27 5 30 10 3 6 14 10 23 10 9 0 30 7 46 15
15 8 35 15 42 15 8 0 22 4 32 9 16 8 42 19 95 40 12 5 55 25 96 45 41 20 80
36 88 36 7 0 13 5 13 10 0 6 8 10 18 11 9 0 31 9 47 20 17 10 47 26 68 36 20
10 37 21 37 25 0 5 4 8 10 8 9 0 120 67 130 79 3 3 17 12 31 19 14 8 39 25 55
38 43 35 46 37 84 64 55 39 96 76 230 210 126 126 228 249 276 335 9 17 20 32
23 35 9 7 30 45 68 125 19 39 39 78 44 87 5 10 9 25 9 33 0 8 5 15 10 15 6 0
10 7 10 16 0 9 6 28 14 42 18 35 36 94 36 116 0 10 7 24 15 32 22 23 22 659 0
688 -8 11 -15 32 -15 47 0 15 -4 31 -10 34 -5 3 -10 17 -10 29 0 13 -7 29 -15
36 -8 7 -15 19 -15 26 0 8 -4 23 -10 34 -5 11 -14 29 -20 40 -19 38 -35 65
-49 83 -8 9 -11 17 -6 17 4 0 -4 12 -19 26 -14 15 -26 31 -26 36 0 13 -131
168 -172 203 -69 58 -78 65 -98 65 -15 0 -20 -7 -20 -29 0 -17 5 -33 10 -36 6
-3 10 -16 10 -29 0 -12 4 -26 9 -32 11 -13 41 -108 41 -133 0 -11 5 -23 10
-26 6 -3 10 -24 10 -46 0 -22 5 -49 11 -60 14 -26 14 -388 -1 -403 -5 -5 -10
-27 -10 -48 0 -21 -4 -38 -10 -38 -5 0 -10 -13 -10 -30 0 -16 -12 -55 -26 -87
-41 -92 -68 -148 -74 -153 -3 -3 -14 -21 -24 -40 -31 -57 -103 -150 -169 -219
-72 -74 -220 -201 -235 -201 -6 0 -12 -4 -14 -9 -3 -9 -84 -62 -154 -102 -133
-75 -134 -76 -209 -109 -27 -13 -72 -33 -98 -46 -27 -13 -57 -24 -67 -24 -11
0 -22 -5 -25 -10 -3 -5 -17 -10 -30 -10 -13 0 -27 -5 -30 -10 -3 -6 -17 -10
-30 -10 -13 0 -27 -5 -30 -10 -3 -6 -19 -10 -34 -10 -15 0 -32 -5 -38 -11 -10
-10 -47 -22 -130 -40 -24 -5 -64 -14 -90 -20 -27 -6 -68 -13 -93 -16 -25 -3
-49 -9 -54 -14 -6 -5 -29 -9 -53 -9 -24 0 -60 -7 -80 -15 -21 -9 -67 -15 -112
-15 -42 0 -82 -5 -87 -10 -7 -7 -147 -9 -415 -6 -428 5 -577 12 -595 27 -11 9
-86 23 -194 36 -25 3 -49 9 -55 14 -5 5 -26 9 -46 9 -21 0 -40 4 -43 9 -3 5
-23 11 -43 14 -53 7 -152 37 -195 58 -10 5 -29 9 -43 9 -14 0 -25 5 -25 10 0
6 -9 10 -20 10 -18 0 -37 6 -107 36 -17 8 -36 14 -42 14 -6 0 -11 5 -11 10 0
6 -7 10 -15 10 -8 0 -23 4 -33 9 -9 5 -42 21 -72 35 -30 15 -77 39 -105 55
-27 15 -68 38 -90 51 -22 12 -47 28 -56 36 -8 8 -21 14 -27 14 -7 0 -12 4 -12
8 0 4 -13 15 -29 25 -41 24 -199 157 -247 208 -65 69 -131 154 -138 177 -4 12
-11 22 -15 22 -12 0 -121 225 -121 249 0 6 -4 11 -10 11 -5 0 -10 15 -10 33 0
18 -4 37 -9 42 -17 18 -24 99 -24 280 0 183 9 291 24 301 5 3 9 20 9 38 0 18
7 41 15 52 8 10 15 31 15 47 0 15 5 27 10 27 6 0 10 13 10 29 0 17 5 33 10 36
6 3 10 19 10 36 0 36 -22 38 -65 7z"/>
</g>
</svg>
